<svg width="20" height="20" viewBox="0 0 20 20" fill="none" xmlns="http://www.w3.org/2000/svg">
<path d="M5.03027 7.05469L5.66043 14.9274C5.71197 15.7169 6.28681 16.3274 6.9786 16.3274H12.4495C13.1426 16.3274 13.7181 15.7147 13.7676 14.9236L14.303 7.05469" stroke="#C6C6C6" stroke-width="0.818182" stroke-linecap="round" stroke-linejoin="round"/>
<path fill-rule="evenodd" clip-rule="evenodd" d="M9.66667 8.66602V12.916Z" fill="#D9D9D9"/>
<path d="M9.66667 8.66602V12.916" stroke="#C6C6C6" stroke-width="0.818182" stroke-linecap="round" stroke-linejoin="round"/>
<path fill-rule="evenodd" clip-rule="evenodd" d="M4 5.83268H15.3333Z" fill="white"/>
<path d="M4 5.83268H15.3333" stroke="#C6C6C6" stroke-width="0.818182" stroke-linecap="round" stroke-linejoin="round"/>
<path fill-rule="evenodd" clip-rule="evenodd" d="M13.2083 5.83333L12.4908 3.91942C12.2833 3.36621 11.7548 3 11.1641 3H8.16925C7.5785 3 7.05008 3.36621 6.84254 3.91942L6.125 5.83333" fill="white"/>
<path d="M13.2083 5.83333L12.4908 3.91942C12.2833 3.36621 11.7548 3 11.1641 3H8.16925C7.5785 3 7.05008 3.36621 6.84254 3.91942L6.125 5.83333" stroke="#C6C6C6" stroke-width="0.818182" stroke-linecap="round" stroke-linejoin="round"/>
<path fill-rule="evenodd" clip-rule="evenodd" d="M12.0973 8.66602L11.7927 12.916Z" fill="#D9D9D9"/>
<path d="M12.0973 8.66602L11.7927 12.916" stroke="#C6C6C6" stroke-width="0.818182" stroke-linecap="round" stroke-linejoin="round"/>
<path fill-rule="evenodd" clip-rule="evenodd" d="M7.23703 8.66602L7.54161 12.916Z" fill="#D9D9D9"/>
<path d="M7.23703 8.66602L7.54161 12.916" stroke="#C6C6C6" stroke-width="0.818182" stroke-linecap="round" stroke-linejoin="round"/>
</svg>
