<svg width="20" height="20" viewBox="0 0 20 20" fill="none" xmlns="http://www.w3.org/2000/svg">
<path fill-rule="evenodd" clip-rule="evenodd" d="M9.98117 17.167H5.49529C4.66938 17.167 4 16.4976 4 15.6717V8.19451C4 7.36859 4.66938 6.69922 5.49529 6.69922H9.98117C10.8071 6.69922 11.4765 7.36859 11.4765 8.19451V15.6717C11.4772 16.4976 10.8071 17.167 9.98117 17.167Z" stroke="#C6C6C6" stroke-width="0.875" stroke-linecap="round" stroke-linejoin="round"/>
<path d="M8.7832 6.69928L9.47666 4.1089C9.69058 3.31132 10.5108 2.83744 11.3084 3.05136L15.6413 4.21232C16.4389 4.42624 16.9127 5.24578 16.6988 6.04407L14.7637 13.2662C14.5497 14.0638 13.7302 14.5377 12.9326 14.3238L11.477 13.9342" stroke="#C6C6C6" stroke-width="0.875" stroke-linecap="round" stroke-linejoin="round"/>
</svg>
